<svg xmlns="http://www.w3.org/2000/svg" viewBox="0 0 24 24" width="24" height="24">
	<style>
		tspan { white-space:pre }
		.shp0 { fill: none } 
		.shp1 { fill: #000000 } 
		.shp2 { fill: #ffffff } 
	</style>
	<path id="Layer" class="shp0" d="M0 0L24 0L24 24L0 24L0 0Z" />
	<path id="Layer" class="shp1" d="M3 18L21 18L21 16L3 16L3 18ZM3 13L21 13L21 11L3 11L3 13ZM3 6L3 8L21 8L21 6L3 6Z" />
	<path id="Shape 1" class="shp2" d="M3 6L21 6L21 8L3 8L3 6Z" />
	<path id="Shape 2" class="shp2" d="M3 11L21 11L21 13L3 13L3 11Z" />
	<path id="Shape 3" class="shp2" d="M3 16L21 16L21 18L3 18L3 16Z" />
</svg>